<svg xmlns="http://www.w3.org/2000/svg" viewBox="0 0 3945 1320" width="3945" height="1320">
  <g transform="translate(0 1020) scale(1 -1)"><path d="M73 -119Q27 -119 27 -73V44Q27 69 41 81L141 165Q88 182 57.5 219.5Q27 257 27 330V435Q27 525 85 574L215 683Q271 730 373 730H653Q699 730 699 684V565Q699 540 685 528L595 453Q659 439 697.0 400.5Q735 362 735 281V176Q735 85 676 37L547 -71Q490 -119 389 -119ZM518 0Q615 0 670.0 45.5Q725 91 725 176V281Q725 337 705.5 371.0Q686 405 651.0 422.5Q616 440 569 447L420 467Q393 470 393 499Q393 529 420 529H653Q689 529 689 565V684Q689 720 653 720H373Q276 720 221.0 675.0Q166 630 166 544V439Q166 355 208.5 319.5Q251 284 321 273L471 252Q484 251 490.5 243.0Q497 235 497 218Q497 206 490.5 197.5Q484 189 471 189H202Q166 189 166 153V36Q166 0 202 0ZM599 620H377Q335 620 310.0 597.0Q285 574 285 539V457Q285 422 299.0 408.5Q313 395 336 390L547 347Q577 341 596.5 321.5Q616 302 616 249V191Q616 147 586.0 118.5Q556 90 505 90H256V100H505Q552 100 579.0 125.5Q606 151 606 191V249Q606 296 589.5 313.5Q573 331 545 337L334 380Q308 385 291.5 400.5Q275 416 275 457V539Q275 579 303.0 604.5Q331 630 377 630H599Z" fill="#7c3aed"/></g>
  <g transform="translate(750 1020) scale(1 -1)"><path d="M395 -119H233Q187 -119 187 -73V408H50Q4 408 4 454V575Q4 600 18 612L147 721Q158 730 179 730H707Q753 730 753 684V563Q753 538 739 526L609 418Q599 408 578 408H570V36Q570 11 556 -1L426 -109Q416 -119 395 -119ZM524 0Q560 0 560 36V527H707Q743 527 743 563V684Q743 720 707 720H179Q143 720 143 684V563Q143 527 179 527H326V36Q326 0 362 0ZM438 90V620H233V630H653V620H448V90Z" fill="#1e0742"/></g>
  <g transform="translate(1506 1020) scale(1 -1)"><path d="M254 -109Q244 -119 223 -119H76Q30 -119 30 -73V191Q30 222 39.5 261.5Q49 301 70 355L156 581Q159 590 163.5 596.5Q168 603 173 608L174 609L302 716Q317 730 346 730H615Q661 730 674 691L761 464Q782 410 791.5 370.5Q801 331 801 300V36Q801 11 787 -1L657 -109Q647 -119 626 -119H475Q426 -119 426 -73V57H398V36Q398 11 384 -1ZM388 36V176H565V36Q565 0 604 0H755Q791 0 791 36V300Q791 330 781.5 369.0Q772 408 752 460L665 687Q654 720 615 720H346Q306 720 295 687L208 460Q188 408 178.5 369.0Q169 330 169 300V36Q169 0 205 0H352Q388 0 388 36ZM685 90H675V262H285V90H275V303Q275 331 279.5 354.5Q284 378 292 400L356 564Q367 592 381.0 611.0Q395 630 429 630H527Q560 630 573.5 611.0Q587 592 599 563L668 400Q676 378 680.5 354.5Q685 331 685 303ZM285 272H675V303Q675 330 671.0 353.0Q667 376 659 396L590 559Q579 585 567.0 602.5Q555 620 527 620H429Q399 620 387.0 603.0Q375 586 365 560L301 396Q294 376 289.5 353.0Q285 330 285 303ZM445 510Q452 527 464 527H489Q501 527 508 510L555 358H398Z" fill="#1e0742"/></g>
  <g transform="translate(2336 1020) scale(1 -1)"><path d="M73 -119Q27 -119 27 -73V44Q27 69 41 81L141 165Q88 182 57.5 219.5Q27 257 27 330V435Q27 525 85 574L215 683Q271 730 373 730H653Q699 730 699 684V565Q699 540 685 528L595 453Q659 439 697.0 400.5Q735 362 735 281V176Q735 85 676 37L547 -71Q490 -119 389 -119ZM518 0Q615 0 670.0 45.5Q725 91 725 176V281Q725 337 705.5 371.0Q686 405 651.0 422.5Q616 440 569 447L420 467Q393 470 393 499Q393 529 420 529H653Q689 529 689 565V684Q689 720 653 720H373Q276 720 221.0 675.0Q166 630 166 544V439Q166 355 208.5 319.5Q251 284 321 273L471 252Q484 251 490.5 243.0Q497 235 497 218Q497 206 490.5 197.5Q484 189 471 189H202Q166 189 166 153V36Q166 0 202 0ZM599 620H377Q335 620 310.0 597.0Q285 574 285 539V457Q285 422 299.0 408.5Q313 395 336 390L547 347Q577 341 596.5 321.5Q616 302 616 249V191Q616 147 586.0 118.5Q556 90 505 90H256V100H505Q552 100 579.0 125.5Q606 151 606 191V249Q606 296 589.5 313.5Q573 331 545 337L334 380Q308 385 291.5 400.5Q275 416 275 457V539Q275 579 303.0 604.5Q331 630 377 630H599Z" fill="#7c3aed"/></g>
  <g transform="translate(3086 1020) scale(1 -1)"><path d="M407 -1 277 -109Q267 -119 246 -119H91Q45 -119 45 -73V575Q45 600 59 612L188 721Q199 730 220 730H375Q421 730 421 684V477H439V575Q439 600 453 612L582 721Q593 730 614 730H769Q815 730 815 684V36Q815 11 801 -1L671 -109Q661 -119 640 -119H485Q439 -119 439 -73V139H421V36Q421 11 407 -1ZM375 0Q411 0 411 36V258H578V36Q578 0 614 0H769Q805 0 805 36V684Q805 720 769 720H614Q578 720 578 684V467H411V684Q411 720 375 720H220Q184 720 184 684V36Q184 0 220 0ZM696 630V90H686V355H302V90H292V630H302V365H686V630Z" fill="#7c3aed"/></g>
</svg>
